{
	"asset":{
		"generator":"Khronos glTF Blender I/O v4.0.44",
		"version":"2.0"
	},
	"scene":0,
	"scenes":[
		{
			"name":"Scene",
			"nodes":[
				0,
				1
			]
		}
	],
	"nodes":[
		{
			"mesh":0,
			"name":"Cube"
		},
		{
			"mesh":1,
			"name":"Plane"
		}
	],
	"materials":[
		{
			"doubleSided":true,
			"name":"A_Base_Material",
			"pbrMetallicRoughness":{
				"baseColorTexture":{
					"index":0
				},
				"metallicFactor":0,
				"roughnessFactor":0.5
			}
		},
		{
			"doubleSided":true,
			"name":"Board_Base_Material",
			"pbrMetallicRoughness":{
				"baseColorTexture":{
					"index":1
				},
				"metallicFactor":0,
				"roughnessFactor":0.5
			}
		}
	],
	"meshes":[
		{
			"name":"Cube",
			"primitives":[
				{
					"attributes":{
						"POSITION":0,
						"NORMAL":1,
						"TEXCOORD_0":2
					},
					"indices":3,
					"material":0
				}
			]
		},
		{
			"name":"Plane",
			"primitives":[
				{
					"attributes":{
						"POSITION":4,
						"NORMAL":5,
						"TEXCOORD_0":6,
						"TANGENT":7
					},
					"indices":8,
					"material":1
				}
			]
		}
	],
	"textures":[
		{
			"sampler":0,
			"source":0
		},
		{
			"sampler":0,
			"source":1
		}
	],
	"images":[
		{
			"mimeType":"image/png",
			"name":"A_Base_Texture",
			"uri":"textures/A_Base_Texture.png"
		},
		{
			"mimeType":"image/png",
			"name":"Board_Base_Texture",
			"uri":"textures/Board_Base_Texture.png"
		}
	],
	"accessors":[
		{
			"bufferView":0,
			"componentType":5126,
			"count":938,
			"max":[
				1.2172709703445435,
				0.3278983533382416,
				1.3915820121765137
			],
			"min":[
				-1.1839457750320435,
				0.01214764453470707,
				-1.534781575202942
			],
			"type":"VEC3"
		},
		{
			"bufferView":1,
			"componentType":5126,
			"count":938,
			"type":"VEC3"
		},
		{
			"bufferView":2,
			"componentType":5126,
			"count":938,
			"type":"VEC2"
		},
		{
			"bufferView":3,
			"componentType":5123,
			"count":2700,
			"type":"SCALAR"
		},
		{
			"bufferView":4,
			"componentType":5126,
			"count":52,
			"max":[
				2.5199999809265137,
				0.2409243881702423,
				2.4900100231170654
			],
			"min":[
				-2.4900100231170654,
				-9.999999747378752e-06,
				-2.4900100231170654
			],
			"type":"VEC3"
		},
		{
			"bufferView":5,
			"componentType":5126,
			"count":52,
			"type":"VEC3"
		},
		{
			"bufferView":6,
			"componentType":5126,
			"count":52,
			"type":"VEC2"
		},
		{
			"bufferView":7,
			"componentType":5126,
			"count":52,
			"type":"VEC4"
		},
		{
			"bufferView":8,
			"componentType":5123,
			"count":84,
			"type":"SCALAR"
		}
	],
	"bufferViews":[
		{
			"buffer":0,
			"byteLength":11256,
			"byteOffset":0,
			"target":34962
		},
		{
			"buffer":0,
			"byteLength":11256,
			"byteOffset":11256,
			"target":34962
		},
		{
			"buffer":0,
			"byteLength":7504,
			"byteOffset":22512,
			"target":34962
		},
		{
			"buffer":0,
			"byteLength":5400,
			"byteOffset":30016,
			"target":34963
		},
		{
			"buffer":0,
			"byteLength":624,
			"byteOffset":35416,
			"target":34962
		},
		{
			"buffer":0,
			"byteLength":624,
			"byteOffset":36040,
			"target":34962
		},
		{
			"buffer":0,
			"byteLength":416,
			"byteOffset":36664,
			"target":34962
		},
		{
			"buffer":0,
			"byteLength":832,
			"byteOffset":37080,
			"target":34962
		},
		{
			"buffer":0,
			"byteLength":168,
			"byteOffset":37912,
			"target":34963
		}
	],
	"samplers":[
		{
			"magFilter":9729,
			"minFilter":9987
		}
	],
	"buffers":[
		{
			"byteLength":38080,
			"uri":"algardata.bin"
		}
	]
}
