{
	"asset":{
		"generator":"Khronos glTF Blender I/O v4.0.44",
		"version":"2.0"
	},
	"scene":0,
	"scenes":[
		{
			"name":"Scene",
			"nodes":[
				0
			]
		}
	],
	"nodes":[
		{
			"mesh":0,
			"name":"Object",
			"scale":[
				2.489798069000244,
				2.489798069000244,
				2.489798069000244
			],
			"translation":[
				0,
				-0.52777099609375,
				0
			]
		}
	],
	"materials":[
		{
			"doubleSided":true,
			"name":"Material.001",
			"pbrMetallicRoughness":{
				"baseColorTexture":{
					"index":0
				},
				"metallicFactor":0,
				"roughnessFactor":0.5
			}
		}
	],
	"meshes":[
		{
			"name":"Plane",
			"primitives":[
				{
					"attributes":{
						"COLOR_0":0,
						"POSITION":1,
						"NORMAL":2,
						"TEXCOORD_0":3
					},
					"indices":4,
					"material":0
				}
			]
		}
	],
	"textures":[
		{
			"sampler":0,
			"source":0
		}
	],
	"images":[
		{
			"mimeType":"image/png",
			"name":"Base",
			"uri":"textures/Base.png"
		}
	],
	"accessors":[
		{
			"bufferView":0,
			"componentType":5123,
			"count":598,
			"normalized":true,
			"type":"VEC4"
		},
		{
			"bufferView":1,
			"componentType":5126,
			"count":598,
			"max":[
				1,
				0.0295901857316494,
				1
			],
			"min":[
				-1,
				-0.05197523534297943,
				-1
			],
			"type":"VEC3"
		},
		{
			"bufferView":2,
			"componentType":5126,
			"count":598,
			"type":"VEC3"
		},
		{
			"bufferView":3,
			"componentType":5126,
			"count":598,
			"type":"VEC2"
		},
		{
			"bufferView":4,
			"componentType":5123,
			"count":1731,
			"type":"SCALAR"
		}
	],
	"bufferViews":[
		{
			"buffer":0,
			"byteLength":4784,
			"byteOffset":0,
			"target":34962
		},
		{
			"buffer":0,
			"byteLength":7176,
			"byteOffset":4784,
			"target":34962
		},
		{
			"buffer":0,
			"byteLength":7176,
			"byteOffset":11960,
			"target":34962
		},
		{
			"buffer":0,
			"byteLength":4784,
			"byteOffset":19136,
			"target":34962
		},
		{
			"buffer":0,
			"byteLength":3462,
			"byteOffset":23920,
			"target":34963
		}
	],
	"samplers":[
		{
			"magFilter":9729,
			"minFilter":9987
		}
	],
	"buffers":[
		{
			"byteLength":27384,
			"uri":"logrise.bin"
		}
	]
}
