{
	"asset":{
		"generator":"Khronos glTF Blender I/O v4.0.44",
		"version":"2.0"
	},
	"scene":0,
	"scenes":[
		{
			"name":"Scene",
			"nodes":[
				0
			]
		}
	],
	"nodes":[
		{
			"mesh":0,
			"name":"Wallstreeters"
		}
	],
	"materials":[
		{
			"doubleSided":true,
			"name":"Material.004",
			"pbrMetallicRoughness":{
				"baseColorFactor":[
					0.4397312104701996,
					0.002124275080859661,
					0.7156417965888977,
					1
				],
				"metallicFactor":0,
				"roughnessFactor":0.5
			}
		}
	],
	"meshes":[
		{
			"name":"Plane",
			"primitives":[
				{
					"attributes":{
						"POSITION":0,
						"NORMAL":1,
						"TEXCOORD_0":2
					},
					"indices":3,
					"material":0
				}
			]
		}
	],
	"accessors":[
		{
			"bufferView":0,
			"componentType":5126,
			"count":51991,
			"max":[
				1.6290349960327148,
				0.005079035181552172,
				2.041124105453491
			],
			"min":[
				-1.6892162561416626,
				-0.15129876136779785,
				-2.0770390033721924
			],
			"type":"VEC3"
		},
		{
			"bufferView":1,
			"componentType":5126,
			"count":51991,
			"type":"VEC3"
		},
		{
			"bufferView":2,
			"componentType":5126,
			"count":51991,
			"type":"VEC2"
		},
		{
			"bufferView":3,
			"componentType":5123,
			"count":277824,
			"type":"SCALAR"
		}
	],
	"bufferViews":[
		{
			"buffer":0,
			"byteLength":623892,
			"byteOffset":0,
			"target":34962
		},
		{
			"buffer":0,
			"byteLength":623892,
			"byteOffset":623892,
			"target":34962
		},
		{
			"buffer":0,
			"byteLength":415928,
			"byteOffset":1247784,
			"target":34962
		},
		{
			"buffer":0,
			"byteLength":555648,
			"byteOffset":1663712,
			"target":34963
		}
	],
	"buffers":[
		{
			"byteLength":2219360,
			"uri":"wallstreeters.bin"
		}
	]
}
